# Rhino

mtllib TECHO.mtl
o object_1
usemtl EI
v -12.143658638000488 3 -9.1499996185302734
v -12.143658638000488 3.2999999523162842 -9.1499996185302734
v -12.143658638000488 3 0.10000000149011612
v -12.143658638000488 3.2999999523162842 0.10000000149011612
v -12.143658638000488 3 0.10000000149011612
v -12.143658638000488 3.2999999523162842 0.10000000149011612
v -0.94365864992141724 3 0.10000000149011612
v -0.94365864992141724 3.2999999523162842 0.10000000149011612
v -0.94365864992141724 3 0.10000000149011612
v -0.94365864992141724 3.2999999523162842 0.10000000149011612
v -0.94365864992141724 3 -9.1499996185302734
v -0.94365864992141724 3.2999999523162842 -9.1499996185302734
v -0.94365864992141724 3 -9.1499996185302734
v -0.94365864992141724 3.2999999523162842 -9.1499996185302734
v -12.143658638000488 3 -9.1499996185302734
v -12.143658638000488 3.2999999523162842 -9.1499996185302734
v -12.143658638000488 3 -9.1499996185302734
v -12.143658638000488 3 0.10000000149011612
v -0.94365864992141724 3 0.10000000149011612
v -0.94365864992141724 3 -9.1499996185302734
v -12.143658638000488 3.2999999523162842 -9.1499996185302734
v -12.143658638000488 3.2999999523162842 0.10000000149011612
v -0.94365864992141724 3.2999999523162842 0.10000000149011612
v -0.94365864992141724 3.2999999523162842 -9.1499996185302734
vt 0 0
vt 0 0.50797843933105469
vt 0.22616137564182281 0
vt 0.22616137564182281 0.50797843933105469
vt 0.22616137564182281 0
vt 0.22616137564182281 0.50797843933105469
vt 0.5 0
vt 0.5 0.50797843933105469
vt 0.5 0
vt 0.5 0.50797843933105469
vt 0.72616136074066162 0
vt 0.72616136074066162 0.50797843933105469
vt 0.72616136074066162 0
vt 0.72616136074066162 0.50797843933105469
vt 1 0
vt 1 0.50797843933105469
vt 0.27383863925933838 1
vt 0.27383863925933838 0.50797897577285767
vt 0 0.50797897577285767
vt 0 1
vt 1 0.50797897577285767
vt 1 1
vt 0.72616136074066162 1
vt 0.72616136074066162 0.50797897577285767
vn -1 0 0
vn -1 0 0
vn -1 0 0
vn -1 0 0
vn 0 0 1
vn 0 0 1
vn 0 0 1
vn 0 0 1
vn 1 0 0
vn 1 0 0
vn 1 0 0
vn 1 0 0
vn 0 0 -1
vn 0 0 -1
vn 0 0 -1
vn 0 0 -1
vn 0 -1 0
vn 0 -1 0
vn 0 -1 0
vn 0 -1 0
vn 0 1 0
vn 0 1 0
vn 0 1 0
vn 0 1 0
f 1/1/1 3/3/3 4/4/4 2/2/2
f 5/5/5 7/7/7 8/8/8 6/6/6
f 9/9/9 11/11/11 12/12/12 10/10/10
f 13/13/13 15/15/15 16/16/16 14/14/14
f 18/18/18 17/17/17 20/20/20
f 20/20/20 19/19/19 18/18/18
f 22/22/22 24/24/24 21/21/21
f 24/24/24 22/22/22 23/23/23
